<svg xmlns="http://www.w3.org/2000/svg" height="1708pt" viewBox="0 0 1708 1708.749" width="1708pt"><path d="M224.941 305.355a30.498 30.498 0 0114.121 8l435.075 435.082 78.726-78.718-435.082-435.082a30.533 30.533 0 01-8.008-14.157l-27.382-109.156L100.867 7.547l-88.89 88.887 103.808 181.648zm0 0"/><path d="M611.824 1297.79l690.395-690.407a30.458 30.458 0 0128.91-8.024c90.898 23.297 187.45 3.11 261.43-54.609 73.992-57.723 117.03-146.488 116.535-240.32 0-5.715-.168-11.473-.54-17.282l-160.577 160.559a30.427 30.427 0 01-31.141 7.352l-182.637-60.887a30.392 30.392 0 01-19.262-19.23l-60.87-182.641c-3.653-10.922-.805-22.992 7.351-31.145L1421.992.586c-96.695-6.016-190.441 34.61-252.203 109.25-61.754 74.656-84.07 174.351-60.05 268.2a30.42 30.42 0 01-8 28.925l-690.384 690.36a30.71 30.71 0 01-28.918 8.015 300.648 300.648 0 00-73.582-9.469c-131.097-.863-248.234 81.781-291.398 205.598-43.14 123.805-2.738 261.355 100.512 342.16s246.476 86.984 356.289 15.344c109.82-71.637 161.89-205.2 129.527-332.27-2.574-10.37.469-21.36 8.04-28.91zM382.95 1522.03H234.785l-73.074-121.754 73.074-121.773H382.95l73.059 121.773zm117.477-356.363l669.672-669.68 43.035 43.043-669.672 669.68zm959.073 527.2c67.8 25.492 144.242 8.961 195.465-42.258 51.226-51.234 67.762-127.687 42.258-195.472zm0 0"/><path d="M1654.969 1389.2l-341.887-342.024c-37.71 31.699-93.398 29.289-128.254-5.524-34.86-34.804-37.316-90.476-5.672-128.226l-48.418-48.477-261.355 261.367 48.71 48.707c37.712-31.699 93.407-29.296 128.243 5.504 34.855 34.813 37.328 90.493 5.68 128.246l341.597 341.778c3.727 3.726 7.66 7.18 11.633 10.539l260.27-260.27c-3.352-3.98-6.82-7.898-10.547-11.62zm-180.477 123.905l-304.394-304.394 43.035-43.043 304.402 304.41zm0 0"/></svg>