<svg height="512" viewBox="0 0 511.973 511.973" width="512" xmlns="http://www.w3.org/2000/svg"><path d="M115.487 173.604H57.731c-4.143 0-7.5 3.357-7.5 7.5s3.357 7.5 7.5 7.5h57.756c4.143 0 7.5-3.357 7.5-7.5s-3.357-7.5-7.5-7.5zm0 33.37H57.731c-4.143 0-7.5 3.357-7.5 7.5s3.357 7.5 7.5 7.5h57.756c4.143 0 7.5-3.357 7.5-7.5s-3.357-7.5-7.5-7.5zm0 33.368H57.731c-4.143 0-7.5 3.357-7.5 7.5s3.357 7.5 7.5 7.5h57.756c4.143 0 7.5-3.357 7.5-7.5s-3.357-7.5-7.5-7.5zm0 33.369H57.731c-4.143 0-7.5 3.357-7.5 7.5s3.357 7.5 7.5 7.5h57.756c4.143 0 7.5-3.357 7.5-7.5s-3.357-7.5-7.5-7.5zm0 33.369H57.731c-4.143 0-7.5 3.357-7.5 7.5s3.357 7.5 7.5 7.5h57.756c4.143 0 7.5-3.357 7.5-7.5s-3.357-7.5-7.5-7.5zm0 33.368H57.731c-4.143 0-7.5 3.357-7.5 7.5s3.357 7.5 7.5 7.5h57.756c4.143 0 7.5-3.357 7.5-7.5s-3.357-7.5-7.5-7.5zm0 33.369H57.731c-4.143 0-7.5 3.357-7.5 7.5s3.357 7.5 7.5 7.5h57.756c4.143 0 7.5-3.357 7.5-7.5s-3.357-7.5-7.5-7.5zm0 33.37H57.731c-4.143 0-7.5 3.357-7.5 7.5s3.357 7.5 7.5 7.5h57.756c4.143 0 7.5-3.357 7.5-7.5s-3.357-7.5-7.5-7.5z"/><path d="M487.317 164.409H372.096v-56.496c0-10.513-8.553-19.065-19.065-19.065H24.655c-10.513 0-19.065 8.553-19.065 19.065v338.078c0 10.512 8.553 19.064 19.065 19.064h115.222v27.852c0 10.513 8.553 19.065 19.065 19.065h328.375c10.513 0 19.065-8.553 19.065-19.065V183.475c.001-10.513-8.552-19.066-19.065-19.066zM83.893 103.848H353.03a4.07 4.07 0 014.065 4.065v22.822H83.893zm-62.749 4.065a4.07 4.07 0 014.065-4.065h43.684v26.888H21.144zm470.239 384.994a4.07 4.07 0 01-4.065 4.065H158.942a4.07 4.07 0 01-4.065-4.065V384.611c0-4.143-3.357-7.5-7.5-7.5s-7.5 3.357-7.5 7.5v65.444H24.655a4.07 4.07 0 01-4.065-4.064V145.735h336.506v18.674H158.942c-10.513 0-19.065 8.553-19.065 19.065v166.262c0 4.143 3.357 7.5 7.5 7.5s7.5-3.357 7.5-7.5V221.297h336.506zM203.18 179.409v26.888h-47.749v-22.822a4.07 4.07 0 014.065-4.065h43.684zm288.203 26.888H218.18v-26.888h269.138a4.07 4.07 0 014.065 4.065z"/><path d="M225.058 415.416a21.835 21.835 0 0015.015 5.951c9.007 0 16.992-5.402 20.342-13.763 3.351-8.36 1.307-17.782-5.208-24.003l-25.626-24.467 25.625-24.468c6.516-6.22 8.56-15.642 5.21-24.002-3.351-8.361-11.336-13.764-20.343-13.764a21.836 21.836 0 00-15.016 5.952l-43.846 41.244a20.72 20.72 0 00-6.499 15.036 20.72 20.72 0 006.499 15.037zm-33.57-60.393l43.846-41.243a6.887 6.887 0 014.738-1.879c4.341 0 6.011 3.324 6.419 4.343s1.496 4.576-1.645 7.573l-28.696 27.4a11 11 0 00-3.386 7.916c0 2.977 1.234 5.861 3.387 7.919l28.695 27.398c3.141 2.998 2.053 6.555 1.645 7.573-.408 1.02-2.078 4.343-6.419 4.343a6.89 6.89 0 01-4.738-1.878l-43.846-41.244a5.59 5.59 0 01-1.776-4.111c0-1.571.631-3.031 1.776-4.11zm194.358 52.581c3.351 8.36 11.335 13.763 20.342 13.763a21.836 21.836 0 0015.016-5.952l43.846-41.244a20.72 20.72 0 006.499-15.037 20.72 20.72 0 00-6.499-15.036l-43.847-41.245a21.835 21.835 0 00-15.015-5.951c-9.007 0-16.991 5.402-20.342 13.764-3.351 8.36-1.306 17.782 5.208 24.002l25.626 24.467-25.626 24.468c-6.515 6.219-8.559 15.641-5.208 24.001zm15.567-13.153l28.694-27.398a10.999 10.999 0 003.389-7.919c0-2.977-1.235-5.862-3.388-7.918l-28.696-27.398c-3.14-2.997-2.051-6.555-1.643-7.573s2.077-4.343 6.418-4.343a6.89 6.89 0 014.738 1.878l43.846 41.244a5.588 5.588 0 011.776 4.11 5.593 5.593 0 01-1.776 4.111l-43.846 41.243a6.887 6.887 0 01-4.738 1.879c-4.341 0-6.01-3.324-6.418-4.343s-1.497-4.575 1.644-7.573zm-101.458 24.65c8.759 0 16.804-5.064 20.604-12.934l44.313-76.164c.118-.203.228-.412.326-.626a22.782 22.782 0 00-1.496-21.924 22.781 22.781 0 00-19.275-10.552c-8.761 0-16.805 5.063-20.604 12.934l-44.313 76.163a7.009 7.009 0 00-.326.626 22.787 22.787 0 001.496 21.925 22.78 22.78 0 0019.275 10.552zm-7.274-25.913l44.267-76.085c.119-.203.228-.413.326-.627a7.905 7.905 0 017.153-4.574c2.742 0 5.162 1.324 6.639 3.635 1.424 2.226 1.65 4.861.636 7.277l-44.267 76.085a7.281 7.281 0 00-.326.626 7.906 7.906 0 01-7.153 4.576c-2.742 0-5.162-1.324-6.639-3.634-1.424-2.227-1.651-4.863-.636-7.279zM25.383 68.752h17.659c2.255 3.198 5.97 5.297 10.172 5.297h281.981c11.222 0 20.747-7.407 23.943-17.589h10.024c4.143 0 7.5-3.357 7.5-7.5s-3.357-7.5-7.5-7.5h-10.024c-3.196-10.182-12.72-17.589-23.943-17.589h-71.209c-4.143 0-7.5 3.357-7.5 7.5s3.357 7.5 7.5 7.5h71.209c5.563 0 10.089 4.525 10.089 10.089s-4.525 10.089-10.089 10.089H208.851V38.871h20.136c4.143 0 7.5-3.357 7.5-7.5s-3.357-7.5-7.5-7.5H55.768V15h93.009c4.143 0 7.5-3.357 7.5-7.5s-3.357-7.5-7.5-7.5H54.889c-7.786 0-14.121 6.335-14.121 14.121v15.046H25.383c-10.914 0-19.793 8.879-19.793 19.793 0 10.913 8.879 19.792 19.793 19.792zm148.676-29.881h19.792v20.178h-19.792zm-118.291 0h103.291v20.178H55.768zm-30.385 5.296h15.385v9.585H25.383c-2.643 0-4.793-2.149-4.793-4.792s2.15-4.793 4.793-4.793z"/></svg>