<svg height="512" viewBox="0 0 24 24" width="512" xmlns="http://www.w3.org/2000/svg"><path d="M17.5 24c-3.584 0-6.5-2.916-6.5-6.5s2.916-6.5 6.5-6.5 6.5 2.916 6.5 6.5-2.916 6.5-6.5 6.5zm0-12c-3.033 0-5.5 2.467-5.5 5.5s2.467 5.5 5.5 5.5 5.5-2.467 5.5-5.5-2.467-5.5-5.5-5.5z"/><path d="M16.5 20a.505.505 0 01-.354-.146l-2-2a.5.5 0 01.707-.707l1.622 1.622 3.148-3.598a.5.5 0 11.753.659l-3.5 4a.499.499 0 01-.36.17H16.5zm-8 1h-6A2.503 2.503 0 010 18.5v-16C0 1.122 1.122 0 2.5 0h11C14.878 0 16 1.122 16 2.5v6a.5.5 0 01-1 0v-6c0-.827-.673-1.5-1.5-1.5h-11C1.673 1 1 1.673 1 2.5v16c0 .827.673 1.5 1.5 1.5h6a.5.5 0 010 1z"/><path d="M9.5 13.89a.5.5 0 01-.5-.5V5.5a.5.5 0 01.5-.5h3a.5.5 0 01.5.5v4.52a.5.5 0 01-1 0V6h-2v7.39a.5.5 0 01-.5.5zM6.5 15h-3a.5.5 0 01-.5-.5v-5a.5.5 0 01.5-.5h3a.5.5 0 01.5.5v5a.5.5 0 01-.5.5zM4 14h2v-4H4z"/><path d="M9.02 15H2.5a.5.5 0 010-1h6.52a.5.5 0 010 1z"/></svg>