<svg version="1.0" xmlns="http://www.w3.org/2000/svg" width="400" height="400" viewBox="0 0 300 300"><path d="M33.1 3C17.3 8.7 4.5 23.4 1.1 39.8c-1.5 7.4-1.5 213 0 220.4 3.9 18.7 20 34.8 38.7 38.7 7.4 1.5 213 1.5 220.4 0 18.7-3.9 34.8-20 38.7-38.7 1.5-7.4 1.5-213 0-220.4-3-14.4-13.9-28.3-27.4-34.9l-7-3.4-113-.2C42 1.1 38.3 1.1 33.1 3zM43 111v10H23v-20h20v10zm35.1-7.3c7.5 2.6 15 8.4 19.6 15.2 5.7 8.3 7.6 15.2 7.1 25.6-.8 15.2-9.6 28.2-23.6 34.8l-6.7 3.2-25.7.3-25.8.3V143h20v20h13.3c12.1 0 13.8-.2 17.8-2.3 2.4-1.3 5.8-4.3 7.4-6.6 2.7-3.8 3-5 3-11.9 0-6.6-.4-8.3-2.5-11.4-2.9-4.3-9-8.5-13.7-9.4l-3.3-.6v-20l4.3.7c2.3.3 6.3 1.3 8.8 2.2zm118 9.4c5.3 1.6 10.3 6.1 13 11.6 3.2 6.7 3.2 18.8-.1 25.6-4.4 9.2-11.5 12.6-26.7 12.7H172v-51h10.1c5.6 0 11.9.5 14 1.1zm48.2 13.7c3.9 2.2 6.7 7.7 7.4 14.6l.6 5.6h-12.2c-13.2 0-13.9.4-10 5.4 1.7 2.1 2.9 2.6 6.8 2.6 2.7 0 5.6-.7 7-1.6 2.2-1.6 2.4-1.5 5 1l2.6 2.7-3 2.4c-7.2 5.9-19.6 5.3-26-1.1-9.7-9.6-5.6-29.6 6.8-33.3 4.2-1.3 11.3-.5 15 1.7zm23.4 10.6c1.8 6.5 3.4 12 3.5 12.2.2.1 1.8-5.3 3.7-12.2l3.4-12.4h10.5l-6.2 18.7-6.3 18.8-4.9.3-5 .3-6.2-18.3c-3.4-10.1-6.2-18.7-6.2-19.1 0-.4 2.3-.7 5.2-.5l5.2.3 3.3 11.9zM146 141v4h-20v-8h20v4z"/><path d="M183 136.9V154h4.9c9.2 0 13.9-7.1 12.8-19.1-.5-6.3-2.8-11.3-5.7-12.9-1.1-.6-4.3-1.4-7-1.7l-5-.6v17.2zm46.6-1.7c-2.9 4.1-2.1 4.8 5.4 4.8s8.3-.7 5.4-4.8c-2.1-3.1-8.7-3.1-10.8 0z"/></svg>